<svg width="451" height="500" viewBox="0 0 451 500" fill="none" xmlns="http://www.w3.org/2000/svg">
<path d="M323.367 158.12C392.731 203 396.88 354.53 298.219 351.63C254.102 350.33 241.213 299.04 201.399 281.04C164.02 264.13 131.791 298.04 94.0605 259.64C49.601 214.44 43.2148 103.89 109.295 96.4999C138.069 93.2799 149.164 125.13 174.302 132.18C225.265 146.48 271.827 124.79 323.367 158.12Z" fill="#407BFF"/>
<path opacity="0.9" d="M323.367 158.12C392.731 203 396.88 354.53 298.219 351.63C254.102 350.33 241.213 299.04 201.399 281.04C164.02 264.13 131.791 298.04 94.0605 259.64C49.601 214.44 43.2148 103.89 109.295 96.4999C138.069 93.2799 149.164 125.13 174.302 132.18C225.265 146.48 271.827 124.79 323.367 158.12Z" fill="#F5F5F7"/>
<path d="M225.5 427.56C128.912 427.56 50.6112 422.492 50.6112 416.24C50.6112 409.988 128.912 404.92 225.5 404.92C322.088 404.92 400.389 409.988 400.389 416.24C400.389 422.492 322.088 427.56 225.5 427.56Z" fill="#F5F5F5"/>
<path d="M406.928 150.56L201.299 183.38L173.707 214.25L406.928 150.56Z" fill="#AA96DA"/>
<path opacity="0.6" d="M406.928 150.56L201.299 183.38L173.707 214.25L406.928 150.56Z" fill="white"/>
<path d="M406.928 150.56L201.299 183.38L210.843 228.02L406.928 150.56Z" fill="#AA96DA"/>
<path opacity="0.2" d="M406.928 150.56L201.299 183.38L210.843 228.02L406.928 150.56Z" fill="black"/>
<path d="M215.064 98.8801L203.13 160.88C202.82 162.499 203.102 164.188 203.913 165.578C204.725 166.967 206 167.942 207.46 168.29L313.968 193.49C315.428 193.832 316.951 193.518 318.203 192.619C319.456 191.719 320.336 190.307 320.652 188.69L332.594 126.69C332.902 125.07 332.618 123.381 331.805 121.992C330.992 120.603 329.716 119.628 328.256 119.28L221.748 94.0801C220.286 93.739 218.763 94.0536 217.51 94.9551C216.257 95.8565 215.378 97.2714 215.064 98.8901V98.8801Z" fill="#AA96DA"/>
<path opacity="0.4" d="M215.064 98.8801L203.13 160.88C202.82 162.499 203.102 164.188 203.913 165.578C204.725 166.967 206 167.942 207.46 168.29L313.968 193.49C315.428 193.832 316.951 193.518 318.203 192.619C319.456 191.719 320.336 190.307 320.652 188.69L332.594 126.69C332.902 125.07 332.618 123.381 331.805 121.992C330.992 120.603 329.716 119.628 328.256 119.28L221.748 94.0801C220.286 93.739 218.763 94.0536 217.51 94.9551C216.257 95.8565 215.378 97.2714 215.064 98.8901V98.8801Z" fill="black"/>
<path d="M217.689 94.8201L253.273 143.25C256.573 147.74 261.157 150.847 266.266 152.056C271.375 153.265 276.704 152.505 281.37 149.9L331.692 121.8C330.878 120.504 329.65 119.599 328.256 119.27L221.748 94.0701C220.358 93.7421 218.907 94.0101 217.689 94.8201Z" fill="#AA96DA"/>
<path d="M406.928 150.56L237.325 195.25L210.842 228.02L406.928 150.56Z" fill="#AA96DA"/>
<path opacity="0.6" d="M406.928 150.56L237.325 195.25L210.842 228.02L406.928 150.56Z" fill="white"/>
<path d="M345.061 193.635L345.517 194.498L326.643 206.755L326.187 205.892L345.061 193.635Z" fill="#AA96DA"/>
<path d="M317.854 211.296L318.31 212.158L311.523 216.566L311.067 215.703L317.854 211.296Z" fill="#AA96DA"/>
<path d="M406.928 150.56L237.325 195.25L270.293 239.3L406.928 150.56Z" fill="#AA96DA"/>
<path d="M180.075 255.26C180.304 255.261 180.53 255.213 180.743 255.12L208.362 243C208.804 242.803 209.157 242.42 209.345 241.934C209.534 241.449 209.541 240.901 209.366 240.41C209.191 239.919 208.847 239.524 208.411 239.313C207.975 239.101 207.48 239.089 207.036 239.28L179.408 251.4C179.017 251.571 178.692 251.889 178.49 252.297C178.287 252.705 178.22 253.179 178.299 253.637C178.378 254.094 178.599 254.507 178.923 254.803C179.248 255.1 179.655 255.261 180.075 255.26Z" fill="#AA96DA"/>
<path opacity="0.3" d="M180.075 255.26C180.304 255.261 180.53 255.213 180.743 255.12L208.362 243C208.804 242.803 209.157 242.42 209.345 241.934C209.534 241.449 209.541 240.901 209.366 240.41C209.191 239.919 208.847 239.524 208.411 239.313C207.975 239.101 207.48 239.089 207.036 239.28L179.408 251.4C179.017 251.571 178.692 251.889 178.49 252.297C178.287 252.705 178.22 253.179 178.299 253.637C178.378 254.094 178.599 254.507 178.923 254.803C179.248 255.1 179.655 255.261 180.075 255.26Z" fill="black"/>
<path d="M181.708 237.7C181.934 237.699 182.158 237.648 182.366 237.55L197.204 231C197.426 230.905 197.629 230.762 197.801 230.579C197.972 230.397 198.11 230.178 198.205 229.937C198.301 229.695 198.352 229.435 198.356 229.171C198.36 228.908 198.318 228.646 198.23 228.4C198.143 228.155 198.012 227.931 197.847 227.742C197.681 227.553 197.483 227.402 197.264 227.298C197.046 227.194 196.811 227.138 196.573 227.135C196.335 227.132 196.099 227.182 195.878 227.28L181.04 233.8C180.596 233.994 180.239 234.376 180.048 234.861C179.857 235.347 179.847 235.897 180.021 236.39C180.148 236.773 180.378 237.104 180.679 237.338C180.981 237.572 181.34 237.699 181.708 237.7Z" fill="#AA96DA"/>
<path opacity="0.5" d="M181.708 237.7C181.934 237.699 182.158 237.648 182.366 237.55L197.204 231C197.426 230.905 197.629 230.762 197.801 230.579C197.972 230.397 198.11 230.178 198.205 229.937C198.301 229.695 198.352 229.435 198.356 229.171C198.36 228.908 198.318 228.646 198.23 228.4C198.143 228.155 198.012 227.931 197.847 227.742C197.681 227.553 197.483 227.402 197.264 227.298C197.046 227.194 196.811 227.138 196.573 227.135C196.335 227.132 196.099 227.182 195.878 227.28L181.04 233.8C180.596 233.994 180.239 234.376 180.048 234.861C179.857 235.347 179.847 235.897 180.021 236.39C180.148 236.773 180.378 237.104 180.679 237.338C180.981 237.572 181.34 237.699 181.708 237.7Z" fill="white"/>
<path d="M212.728 255C212.953 254.997 213.176 254.95 213.386 254.86L240.329 243C240.551 242.905 240.753 242.762 240.925 242.579C241.097 242.397 241.234 242.178 241.33 241.937C241.425 241.695 241.476 241.435 241.481 241.171C241.485 240.908 241.442 240.646 241.355 240.4C241.267 240.155 241.137 239.931 240.971 239.742C240.806 239.553 240.608 239.402 240.389 239.298C240.171 239.194 239.935 239.138 239.698 239.135C239.46 239.132 239.224 239.182 239.003 239.28L212.06 251.1C211.669 251.271 211.345 251.589 211.142 251.997C210.94 252.405 210.872 252.879 210.952 253.337C211.031 253.794 211.251 254.207 211.576 254.503C211.9 254.8 212.307 254.961 212.728 254.96V255Z" fill="#AA96DA"/>
<path opacity="0.3" d="M212.728 255C212.953 254.997 213.176 254.95 213.386 254.86L240.329 243C240.551 242.905 240.753 242.762 240.925 242.579C241.097 242.397 241.234 242.178 241.33 241.937C241.425 241.695 241.476 241.435 241.481 241.171C241.485 240.908 241.442 240.646 241.355 240.4C241.267 240.155 241.137 239.931 240.971 239.742C240.806 239.553 240.608 239.402 240.389 239.298C240.171 239.194 239.935 239.138 239.698 239.135C239.46 239.132 239.224 239.182 239.003 239.28L212.06 251.1C211.669 251.271 211.345 251.589 211.142 251.997C210.94 252.405 210.872 252.879 210.952 253.337C211.031 253.794 211.251 254.207 211.576 254.503C211.9 254.8 212.307 254.961 212.728 254.96V255Z" fill="black"/>
<g filter="url(#filter0_d_12_6)">
<path d="M115.185 164.82C112.795 169.99 110.603 175.17 108.52 180.47C106.436 185.77 104.497 191.14 102.801 196.77L102.188 198.9C102.079 199.28 101.926 199.9 101.836 200.34C101.746 200.78 101.664 201.28 101.619 201.7C101.413 203.313 101.307 204.941 101.304 206.57C101.29 209.575 101.417 212.579 101.682 215.57C102.186 221.36 103.005 227.11 104.136 232.79L109.088 232.18C109.151 226.55 109.196 220.86 109.377 215.31C109.458 212.55 109.602 209.78 109.855 207.18C109.969 205.959 110.15 204.747 110.396 203.55C110.441 203.27 110.513 203.06 110.567 202.83C110.621 202.6 110.675 202.52 110.766 202.22L111.451 200.33C113.336 195.27 115.456 190.17 117.621 185.09L124.169 169.85L115.185 164.82Z" fill="#E4897B"/>
<path d="M109.016 230.42L111.325 235.21L103.946 237.49C103.946 237.49 102.539 233.64 104.217 230.6L109.016 230.42Z" fill="#E4897B"/>
<path d="M114.148 242.11L107.365 242.71L103.946 237.49L111.325 235.21L114.148 242.11Z" fill="#E4897B"/>
<path d="M146.241 130.26C146.34 130.85 146.71 131.26 147.053 131.18C147.396 131.1 147.585 130.57 147.477 129.99C147.369 129.41 147.008 128.99 146.665 129.07C146.322 129.15 146.124 129.68 146.241 130.26Z" fill="black"/>
<path d="M146.656 131.26C147.609 132.896 148.759 134.38 150.075 135.67C149.768 136.032 149.393 136.316 148.977 136.503C148.562 136.689 148.114 136.774 147.666 136.75L146.656 131.26Z" fill="#DE5753"/>
<path d="M143.734 127.47C143.819 127.468 143.9 127.428 143.959 127.36C144.218 127.032 144.544 126.775 144.909 126.612C145.274 126.449 145.669 126.383 146.061 126.42C146.136 126.421 146.208 126.392 146.266 126.339C146.323 126.286 146.362 126.213 146.375 126.131C146.388 126.049 146.374 125.965 146.337 125.894C146.299 125.822 146.24 125.768 146.169 125.74C145.667 125.67 145.158 125.738 144.686 125.938C144.214 126.139 143.794 126.466 143.463 126.89C143.405 126.956 143.373 127.043 143.373 127.135C143.373 127.227 143.405 127.315 143.463 127.38C143.499 127.417 143.542 127.444 143.589 127.459C143.636 127.475 143.685 127.479 143.734 127.47Z" fill="black"/>
<path d="M131.322 138.43C132.269 143.81 133.216 153.65 129.825 157.24C129.825 157.24 131.151 162.69 140.162 162.69C150.084 162.69 144.888 157.24 144.888 157.24C139.476 155.81 139.63 151.36 140.568 147.19L131.322 138.43Z" fill="#E4897B"/>
<path d="M128.463 160.63C127.75 158 126.965 154.99 128.589 154.04C130.393 153.04 140.198 151.94 143.58 153.89C146.963 155.84 145.998 161.19 145.998 161.19L128.463 160.63Z" fill="black"/>
<path d="M107.663 410C107.943 410.041 108.228 410.02 108.5 409.938C108.773 409.855 109.028 409.713 109.25 409.52C109.329 409.399 109.371 409.254 109.371 409.105C109.371 408.956 109.329 408.811 109.25 408.69C109.199 408.586 109.128 408.496 109.042 408.425C108.957 408.355 108.858 408.305 108.754 408.28C107.78 408.04 105.958 409.42 105.877 409.48C105.853 409.502 105.835 409.529 105.824 409.561C105.813 409.592 105.81 409.626 105.814 409.66C105.819 409.692 105.833 409.722 105.854 409.745C105.875 409.769 105.902 409.784 105.931 409.79C106.5 409.926 107.08 409.996 107.663 410ZM108.493 408.6H108.682C108.743 408.614 108.801 408.643 108.85 408.684C108.9 408.726 108.941 408.779 108.971 408.84C109.115 409.12 109.025 409.24 108.971 409.28C108.691 409.7 107.338 409.7 106.346 409.52C106.992 409.047 107.726 408.739 108.493 408.62V408.6Z" fill="#AA96DA"/>
<path d="M105.967 409.82H106.039C106.725 409.4 108.051 407.82 107.915 406.98C107.892 406.85 107.829 406.733 107.737 406.649C107.645 406.566 107.529 406.52 107.41 406.52C107.291 406.506 107.171 406.518 107.056 406.556C106.942 406.593 106.835 406.656 106.743 406.74C105.976 407.44 105.841 409.56 105.841 409.65C105.837 409.682 105.842 409.714 105.855 409.742C105.868 409.771 105.888 409.794 105.913 409.81C105.93 409.818 105.948 409.821 105.967 409.82ZM107.302 406.82H107.338C107.545 406.82 107.563 406.96 107.573 407C107.654 407.49 106.806 408.7 106.129 409.27C106.175 408.435 106.445 407.633 106.905 406.97C106.966 406.917 107.035 406.879 107.11 406.856C107.184 406.834 107.262 406.828 107.338 406.84L107.302 406.82Z" fill="#AA96DA"/>
<path d="M147.45 410C148.298 410 149.119 409.87 149.398 409.45C149.469 409.339 149.507 409.206 149.507 409.07C149.507 408.934 149.469 408.801 149.398 408.69C149.344 408.587 149.271 408.498 149.184 408.427C149.097 408.357 148.998 408.307 148.893 408.28C147.802 407.95 145.475 409.41 145.375 409.47C145.349 409.489 145.328 409.516 145.315 409.548C145.302 409.58 145.298 409.615 145.303 409.65C145.308 409.685 145.323 409.717 145.346 409.742C145.369 409.768 145.398 409.784 145.429 409.79C146.096 409.929 146.772 409.999 147.45 410ZM148.505 408.58C148.604 408.564 148.704 408.564 148.803 408.58C148.866 408.594 148.927 408.622 148.979 408.664C149.032 408.705 149.077 408.758 149.11 408.82C149.227 409.04 149.182 409.14 149.11 409.2C148.812 409.66 147.134 409.69 145.889 409.5C146.7 409.015 147.589 408.709 148.505 408.6V408.58Z" fill="#AA96DA"/>
<path d="M145.447 409.82H145.511C146.313 409.43 147.892 407.82 147.775 407.01C147.775 406.81 147.621 406.57 147.188 406.52C147.027 406.493 146.863 406.506 146.707 406.558C146.551 406.609 146.407 406.699 146.286 406.82C145.438 407.58 145.267 409.56 145.258 409.65C145.255 409.68 145.259 409.711 145.27 409.74C145.281 409.768 145.299 409.792 145.321 409.81C145.34 409.821 145.362 409.828 145.383 409.83C145.405 409.832 145.427 409.828 145.447 409.82ZM147.062 406.82H147.161C147.441 406.82 147.459 406.98 147.468 407.02C147.54 407.52 146.458 408.77 145.664 409.31C145.742 408.47 146.058 407.679 146.566 407.05C146.695 406.926 146.856 406.853 147.026 406.84L147.062 406.82Z" fill="#AA96DA"/>
<path d="M138.159 409.64H144.789L145.448 392.63H138.818L138.159 409.64Z" fill="#E4897B"/>
<path d="M98.3721 409.64H105.002L108.33 392.63H101.71L98.3721 409.64Z" fill="#E4897B"/>
<path d="M105.471 408.79H98.0294C97.8965 408.791 97.768 408.842 97.6647 408.935C97.5615 409.027 97.4897 409.156 97.4611 409.3L96.1532 415.83C96.1233 415.989 96.1262 416.153 96.1616 416.311C96.197 416.469 96.2639 416.615 96.3576 416.74C96.4512 416.865 96.569 416.965 96.7023 417.033C96.8356 417.1 96.9809 417.133 97.1274 417.13C99.7251 417.08 100.988 416.91 104.262 416.91C106.274 416.91 110.423 417.15 113.21 417.15C115.997 417.15 116.349 414.15 115.212 413.82C110.107 412.58 108.186 410.87 106.553 409.25C106.257 408.953 105.871 408.789 105.471 408.79Z" fill="black"/>
<path d="M144.744 408.79H137.528C137.395 408.791 137.267 408.842 137.163 408.935C137.06 409.027 136.988 409.156 136.96 409.3L135.652 415.83C135.62 415.988 135.622 416.151 135.655 416.308C135.689 416.465 135.754 416.611 135.846 416.736C135.938 416.861 136.055 416.962 136.186 417.03C136.318 417.098 136.462 417.132 136.608 417.13C139.215 417.08 142.985 416.91 146.268 416.91C150.102 416.91 153.421 417.15 157.922 417.15C160.628 417.15 161.395 414.15 160.258 413.82C155.072 412.56 150.841 412.43 146.359 409.37C145.881 409.01 145.321 408.809 144.744 408.79Z" fill="black"/>
<path d="M147.928 170.14C153.469 169.664 158.982 168.853 164.444 167.71C167.15 167.13 169.91 166.48 172.652 165.66C175.462 164.862 178.223 163.86 180.914 162.66C181.609 162.34 182.312 161.99 183.007 161.66C183.789 161.233 184.542 160.745 185.262 160.2C186.561 159.25 187.679 158.26 188.789 157.28C190.998 155.28 193.046 153.28 195.103 151.23C199.135 147.09 202.959 142.81 206.648 138.31L203.329 134.2L190.241 144.63C188.085 146.35 185.902 148.04 183.755 149.63C182.691 150.42 181.6 151.16 180.598 151.79C180.18 152.055 179.746 152.289 179.3 152.49C178.767 152.72 178.226 152.95 177.658 153.17C172.783 154.834 167.798 156.071 162.748 156.87C157.597 157.77 152.276 158.51 147.134 159.11L147.928 170.14Z" fill="#E4897B"/>
<path d="M117.964 158.9C111.749 160.48 105.471 180.61 105.471 180.61L118.252 190.78C118.252 190.78 121.86 181.4 125.342 173.2C128.986 164.61 124.314 157.29 117.964 158.9Z" fill="#AA96DA"/>
<path opacity="0.4" d="M117.964 158.9C111.749 160.48 105.471 180.61 105.471 180.61L118.252 190.78C118.252 190.78 121.86 181.4 125.342 173.2C128.986 164.61 124.314 157.29 117.964 158.9Z" fill="black"/>
<path d="M121.544 169.9L124.079 176.19C121.454 182.47 119.055 188.69 118.415 190.35C118.505 182.92 119.777 173.7 121.544 169.9Z" fill="#AA96DA"/>
<path opacity="0.6" d="M121.544 169.9L124.079 176.19C121.454 182.47 119.055 188.69 118.415 190.35C118.505 182.92 119.777 173.7 121.544 169.9Z" fill="black"/>
<path d="M155.081 159.28C155.081 159.28 162.134 168.11 155.478 222.78H120.038C119.786 216.78 123.204 187.32 117.964 158.9C121.881 158.064 125.843 157.509 129.825 157.24C134.842 156.92 139.871 156.92 144.888 157.24C148.329 157.624 151.737 158.306 155.081 159.28Z" fill="#AA96DA"/>
<path opacity="0.4" d="M155.081 159.28C155.081 159.28 162.134 168.11 155.478 222.78H120.038C119.786 216.78 123.204 187.32 117.964 158.9C121.881 158.064 125.843 157.509 129.825 157.24C134.842 156.92 139.871 156.92 144.888 157.24C148.329 157.624 151.737 158.306 155.081 159.28Z" fill="black"/>
<path d="M157.706 169.9C157.94 171.97 158.121 174.42 158.238 177.31C154.738 176.146 151.413 174.414 148.37 172.17L157.706 169.9Z" fill="#AA96DA"/>
<path opacity="0.6" d="M157.706 169.9C157.94 171.97 158.121 174.42 158.238 177.31C154.738 176.146 151.413 174.414 148.37 172.17L157.706 169.9Z" fill="black"/>
<path d="M142.516 171C147.261 175.66 165.373 175.19 165.373 175.19L165.968 155.75C159.852 156.716 153.682 157.21 147.504 157.23C137.411 157 137.339 165.86 142.516 171Z" fill="#AA96DA"/>
<path opacity="0.4" d="M142.516 171C147.261 175.66 165.373 175.19 165.373 175.19L165.968 155.75C159.852 156.716 153.682 157.21 147.504 157.23C137.411 157 137.339 165.86 142.516 171Z" fill="black"/>
<path d="M203.157 134.24L207.667 128.35L212.529 134.35C212.529 134.35 209.535 139.93 204.781 139.05L203.157 134.24Z" fill="#E4897B"/>
<path d="M214.126 121.48L215.876 129.17L212.565 134.31L207.704 128.35L214.126 121.48Z" fill="#E4897B"/>
<path d="M145.448 392.64L145.105 401.4H138.475L138.818 392.64H145.448Z" fill="#CE6F64"/>
<path d="M101.7 392.64H108.33L106.616 401.4H99.9867L101.7 392.64Z" fill="#CE6F64"/>
<path d="M141.461 123C147.405 120 149.281 106.67 132.179 110C132.179 110 134.759 113.16 129.527 115.16C124.296 117.16 128.67 129.51 141.461 123Z" fill="black"/>
<path d="M128.544 133C130.249 140 130.916 144.26 134.858 147.19C140.757 151.59 148.09 146.54 148.325 139.07C148.532 132.36 145.709 121.97 138.899 120.55C137.396 120.223 135.842 120.329 134.386 120.857C132.93 121.385 131.621 122.318 130.582 123.566C129.544 124.815 128.812 126.337 128.455 127.989C128.098 129.64 128.129 131.365 128.544 133Z" fill="#E4897B"/>
<path d="M132.414 113.5C128.364 116 122.879 117.5 123.394 121.06C124.07 125.41 120.083 122.69 121.012 129.16C121.617 133.39 128.652 146.21 133.64 145.59C141.091 144.59 140.144 132.03 140.171 125.41C140.189 121.5 140.351 108.57 132.414 113.5Z" fill="black"/>
<path d="M141.064 119.11C142.868 119.58 145.258 131.11 138.268 132.17C130.231 133.38 141.064 119.11 141.064 119.11Z" fill="black"/>
<path d="M140.883 123.2C143.093 123.42 148.099 120.47 147.486 116.03C147.486 116 144.32 121.22 140.883 123.2Z" fill="black"/>
<path d="M137.6 133.09C138.278 134.739 139.43 136.093 140.874 136.94C142.778 138.04 143.851 136.44 143.418 134.32C143.03 132.42 141.569 129.55 139.612 129.32C137.654 129.09 136.815 131.09 137.6 133.09Z" fill="#E4897B"/>
<path d="M127.678 125C126.33 124.351 125.148 123.342 124.238 122.063C123.329 120.784 122.719 119.274 122.465 117.67C122.465 117.67 119.488 126.84 127.678 125Z" fill="black"/>
<path d="M120.155 124.85C120.783 124.383 121.505 124.095 122.258 124.013C123.01 123.931 123.769 124.057 124.467 124.38C124.467 124.38 121.689 120.39 120.155 124.85Z" fill="black"/>
<path d="M142.904 222.78C142.904 222.78 135.381 278.92 131.259 299.95C126.749 322.95 109.701 399.71 109.701 399.71H97.5694C97.5694 399.71 108.799 324.84 111.379 302C114.175 277.25 120.038 222.74 120.038 222.74L142.904 222.78Z" fill="#AA96DA"/>
<path opacity="0.5" d="M142.904 222.78C142.904 222.78 135.381 278.92 131.259 299.95C126.749 322.95 109.701 399.71 109.701 399.71H97.5694C97.5694 399.71 108.799 324.84 111.379 302C114.175 277.25 120.038 222.74 120.038 222.74L142.904 222.78Z" fill="white"/>
<path d="M111.641 394.75C111.695 394.75 110.387 399.92 110.387 399.92H96.7305L96.983 395.31L111.641 394.75Z" fill="#AA96DA"/>
<path opacity="0.1" d="M111.641 394.75C111.695 394.75 110.387 399.92 110.387 399.92H96.7305L96.983 395.31L111.641 394.75Z" fill="black"/>
<path d="M138.15 242.78C129.455 244.67 130.375 280.62 131.421 299.11C133.929 286.04 137.6 260.89 140.108 243.04C139.501 242.709 138.81 242.617 138.15 242.78Z" fill="#AA96DA"/>
<path opacity="0.4" d="M138.15 242.78C129.455 244.67 130.375 280.62 131.421 299.11C133.929 286.04 137.6 260.89 140.108 243.04C139.501 242.709 138.81 242.617 138.15 242.78Z" fill="white"/>
<path d="M155.478 222.78C155.478 222.78 156.38 277.7 155.667 300.11C154.918 323.41 147.549 399.71 147.549 399.71H136.328C136.328 399.71 135.913 324.77 135.426 301.89C134.876 276.94 132.161 222.78 132.161 222.78H155.478Z" fill="#AA96DA"/>
<path opacity="0.5" d="M155.478 222.78C155.478 222.78 156.38 277.7 155.667 300.11C154.918 323.41 147.549 399.71 147.549 399.71H136.328C136.328 399.71 135.913 324.77 135.426 301.89C134.876 276.94 132.161 222.78 132.161 222.78H155.478Z" fill="white"/>
<path d="M145.222 390.77C145.249 390.77 145.275 390.759 145.296 390.739C145.316 390.718 145.328 390.69 145.33 390.66C147.315 369.54 151.978 318.44 152.546 300.11C153.151 281.4 152.6 239.42 152.42 227C152.42 226.968 152.409 226.938 152.388 226.915C152.368 226.893 152.34 226.88 152.312 226.88C152.282 226.88 152.254 226.892 152.232 226.915C152.21 226.937 152.197 226.967 152.194 227C152.375 239.42 152.925 281.4 152.321 300.1C151.734 318.43 147.071 369.51 145.105 390.63C145.104 390.664 145.115 390.697 145.135 390.723C145.155 390.748 145.183 390.765 145.213 390.77H145.222Z" fill="#AA96DA"/>
<path opacity="0.4" d="M145.222 390.77C145.249 390.77 145.275 390.759 145.296 390.739C145.316 390.718 145.328 390.69 145.33 390.66C147.315 369.54 151.978 318.44 152.546 300.11C153.151 281.4 152.6 239.42 152.42 227C152.42 226.968 152.409 226.938 152.388 226.915C152.368 226.893 152.34 226.88 152.312 226.88C152.282 226.88 152.254 226.892 152.232 226.915C152.21 226.937 152.197 226.967 152.194 227C152.375 239.42 152.925 281.4 152.321 300.1C151.734 318.43 147.071 369.51 145.105 390.63C145.104 390.664 145.115 390.697 145.135 390.723C145.155 390.748 145.183 390.765 145.213 390.77H145.222Z" fill="white"/>
<path d="M149.732 394.75C149.777 394.75 149.092 399.92 149.092 399.92H135.444L135.074 395.31L149.732 394.75Z" fill="#AA96DA"/>
<path opacity="0.1" d="M149.732 394.75C149.777 394.75 149.092 399.92 149.092 399.92H135.444L135.074 395.31L149.732 394.75Z" fill="black"/>
</g>
<defs>
<filter id="filter0_d_12_6" x="92.1328" y="109.47" width="127.743" height="315.68" filterUnits="userSpaceOnUse" color-interpolation-filters="sRGB">
<feFlood flood-opacity="0" result="BackgroundImageFix"/>
<feColorMatrix in="SourceAlpha" type="matrix" values="0 0 0 0 0 0 0 0 0 0 0 0 0 0 0 0 0 0 127 0" result="hardAlpha"/>
<feOffset dy="4"/>
<feGaussianBlur stdDeviation="2"/>
<feComposite in2="hardAlpha" operator="out"/>
<feColorMatrix type="matrix" values="0 0 0 0 0 0 0 0 0 0 0 0 0 0 0 0 0 0 0.25 0"/>
<feBlend mode="normal" in2="BackgroundImageFix" result="effect1_dropShadow_12_6"/>
<feBlend mode="normal" in="SourceGraphic" in2="effect1_dropShadow_12_6" result="shape"/>
</filter>
</defs>
</svg>
